<svg width="300" height="65" viewBox="0 0 300 65" fill="none" xmlns="http://www.w3.org/2000/svg">
<path d="M216.23 1.64601V13.8113H198.003V63.354H185.792V13.8113H167.565V1.64601H216.23Z" fill="white"/>
<path d="M130.837 63.354V1.64601H143.048V51.1887H168V63.354H130.837Z" fill="white"/>
<path d="M22.9747 63.354L0.5 1.64599H13.4627L30.8496 49.2934L48.2365 1.64599H61.155L38.6804 63.354H22.9747Z" fill="white"/>
<path d="M107.252 18.5517C108.922 20.3389 110.227 22.4318 111.166 24.8306C112.14 27.2107 112.626 29.7672 112.626 32.5C112.626 35.2328 112.14 37.7893 111.166 40.1694C110.223 42.5496 108.91 44.6506 107.229 46.4725C105.548 48.2943 103.601 49.7342 101.389 50.792C99.177 51.8205 96.8174 52.3347 94.3104 52.3347C91.8034 52.3347 89.4439 51.8205 87.2318 50.792C85.0197 49.7342 83.0731 48.309 81.3919 46.5165C79.7107 44.6947 78.3835 42.5937 77.4102 40.2135C76.4664 37.8039 75.9945 35.2328 75.9945 32.5C75.9945 29.7672 76.4664 27.2107 77.4102 24.8306C78.3835 22.4504 79.7107 20.3494 81.3919 18.5276C83.0731 16.7057 85.0197 15.2805 87.2318 14.2521C89.2442 13.2897 91.3787 12.7651 93.6353 12.6782L100.279 1.09491C98.3523 0.698304 96.3628 0.5 94.3104 0.5C90.1222 0.5 86.1847 1.33747 82.498 3.0124C78.8112 4.65794 75.5668 6.94996 72.7648 9.88843C69.9629 12.8269 67.7656 16.2355 66.1729 20.1143C64.5802 23.9637 63.7838 28.0923 63.7838 32.5C63.7838 36.9077 64.5802 41.051 66.1729 44.9298C67.7656 48.7792 69.9629 52.1731 72.7648 55.1116C75.5668 58.05 78.8112 60.3567 82.498 62.0317C86.1847 63.6772 90.1222 64.5 94.3104 64.5C98.5281 64.5 102.48 63.6772 106.167 62.0317C109.854 60.3567 113.098 58.05 115.9 55.1116C118.702 52.1731 120.885 48.7792 122.448 44.9298C124.041 41.051 124.837 36.9077 124.837 32.5C124.837 28.0923 124.041 23.9637 122.448 20.1143C120.885 16.2355 118.702 12.8269 115.9 9.88843C115.138 9.08868 114.342 8.33681 113.514 7.63283L107.252 18.5517Z" fill="white"/>
<path d="M97.6942 13.0047C98.9684 13.2677 100.2 13.6835 101.389 14.2521C102.47 14.7549 103.488 15.3525 104.443 16.0449L110.545 5.40598C109.162 4.49589 107.703 3.69803 106.167 3.0124C105.435 2.67998 104.693 2.38055 103.941 2.11411L97.6942 13.0047Z" fill="white"/>
<path d="M110.323 22.95C110.359 23.0209 110.395 23.0922 110.43 23.1638L110.586 22.95H110.323Z" fill="white"/>
<path fill-rule="evenodd" clip-rule="evenodd" d="M102.957 3.84683L109.348 7.5102L97.7421 27.6092H108.067L87.1605 54.7146L81.3138 50.2384L93.1018 34.9554H84.9932L102.957 3.84683Z" fill="white"/>
<path d="M231.735 64.0886C227.665 64.0886 223.949 63.0454 220.586 60.9591C217.254 58.8728 214.584 56.0813 212.579 52.5845C210.603 49.0583 209.615 45.1648 209.615 40.904C209.615 37.6717 210.19 34.6598 211.34 31.8682C212.49 29.0473 214.068 26.579 216.074 24.4633C218.109 22.3182 220.468 20.6432 223.152 19.4385C225.836 18.2337 228.697 17.6313 231.735 17.6313C235.805 17.6313 239.507 18.6745 242.84 20.7608C246.202 22.8471 248.871 25.6533 250.848 29.1795C252.853 32.7057 253.856 36.6139 253.856 40.904C253.856 44.107 253.281 47.1042 252.131 49.8958C250.98 52.6873 249.388 55.1556 247.352 57.3007C245.347 59.4164 243.002 61.0767 240.318 62.2814C237.664 63.4862 234.803 64.0886 231.735 64.0886ZM231.735 53.3338C233.888 53.3338 235.82 52.7608 237.531 51.6148C239.242 50.4688 240.584 48.9555 241.557 47.0748C242.56 45.1942 243.061 43.1373 243.061 40.904C243.061 38.612 242.545 36.5257 241.513 34.6451C240.51 32.7351 239.138 31.2218 237.398 30.1051C235.687 28.9591 233.8 28.3861 231.735 28.3861C229.612 28.3861 227.695 28.9591 225.984 30.1051C224.273 31.2511 222.916 32.7792 221.914 34.6892C220.911 36.5992 220.409 38.6708 220.409 40.904C220.409 43.2254 220.926 45.3264 221.958 47.2071C222.99 49.0877 224.362 50.5863 226.072 51.7029C227.813 52.7902 229.7 53.3338 231.735 53.3338Z" fill="white"/>
<path d="M299.5 35.0859V62.9426H288.705V37.9068C288.705 36.1731 288.277 34.601 287.422 33.1905C286.567 31.7507 285.416 30.6194 283.971 29.7966C282.556 28.9444 280.978 28.5184 279.237 28.5184C277.497 28.5184 275.905 28.9444 274.459 29.7966C273.044 30.6194 271.908 31.7507 271.053 33.1905C270.227 34.601 269.814 36.1731 269.814 37.9068V62.9426H259.019L258.975 18.8655H269.77L269.814 22.7883C271.318 21.2016 273.117 19.9527 275.211 19.0418C277.306 18.1015 279.562 17.6313 281.98 17.6313C285.195 17.6313 288.13 18.4247 290.784 20.0115C293.439 21.5689 295.548 23.6699 297.111 26.3145C298.704 28.9297 299.5 31.8535 299.5 35.0859Z" fill="white"/>
</svg>
 